<svg width="1180" height="700" viewBox="0 0 1180 700" fill="none" xmlns="http://www.w3.org/2000/svg">
<g filter="url(#filter0_d_8_4368)">
<path d="M1050.1 224L1100 265H760V224H1050.1Z" fill="url(#paint0_linear_8_4368)"/>
<path d="M760 264H1100V520H760V264Z" fill="url(#paint1_linear_8_4368)"/>
<path d="M760 264H1100V520H760V264Z" fill="url(#paint2_linear_8_4368)" fill-opacity="0.7"/>
<g filter="url(#filter1_i_8_4368)">
<path d="M926.263 421.5C920.179 421.5 914.138 420.708 908.138 419.125C902.138 417.458 897.054 415.125 892.888 412.125L900.763 396.625C904.096 399.042 907.971 400.958 912.388 402.375C916.804 403.792 921.263 404.5 925.763 404.5C930.846 404.5 934.846 403.5 937.763 401.5C940.679 399.5 942.138 396.75 942.138 393.25C942.138 389.917 940.846 387.292 938.263 385.375C935.679 383.458 931.513 382.5 925.763 382.5H916.513V369.125L940.888 341.5L943.138 348.75H897.263V332.5H958.513V345.625L934.263 373.25L924.013 367.375H929.888C940.638 367.375 948.763 369.792 954.263 374.625C959.763 379.458 962.513 385.667 962.513 393.25C962.513 398.167 961.221 402.792 958.638 407.125C956.054 411.375 952.096 414.833 946.763 417.5C941.429 420.167 934.596 421.5 926.263 421.5Z" fill="#89471E"/>
</g>
<path d="M143.364 144L80 184.464H422.181V144.002L143.364 144Z" fill="url(#paint3_linear_8_4368)"/>
<path d="M80 184H420V520H80V184Z" fill="url(#paint4_linear_8_4368)"/>
<path d="M80 184H420V520H80V184Z" fill="url(#paint5_linear_8_4368)" fill-opacity="0.7"/>
<g filter="url(#filter2_i_8_4368)">
<path d="M211.212 367V351.25L251.712 313C254.912 310.1 257.262 307.5 258.762 305.2C260.262 302.9 261.262 300.8 261.762 298.9C262.362 297 262.662 295.25 262.662 293.65C262.662 289.45 261.212 286.25 258.312 284.05C255.512 281.75 251.362 280.6 245.862 280.6C241.462 280.6 237.362 281.45 233.562 283.15C229.862 284.85 226.712 287.5 224.112 291.1L206.412 279.7C210.412 273.7 216.012 268.95 223.212 265.45C230.412 261.95 238.712 260.2 248.112 260.2C255.912 260.2 262.712 261.5 268.512 264.1C274.412 266.6 278.962 270.15 282.162 274.75C285.462 279.35 287.112 284.85 287.112 291.25C287.112 294.65 286.662 298.05 285.762 301.45C284.962 304.75 283.262 308.25 280.662 311.95C278.162 315.65 274.462 319.8 269.562 324.4L235.962 356.05L231.312 347.2H290.562V367H211.212Z" fill="#797979"/>
</g>
<path d="M452 0H732L760 36H420L452 0Z" fill="url(#paint6_linear_8_4368)"/>
<rect x="420" y="36" width="340" height="484" fill="url(#paint7_linear_8_4368)"/>
<rect x="420" y="36" width="340" height="484" fill="url(#paint8_linear_8_4368)" fill-opacity="0.7"/>
<g filter="url(#filter3_i_8_4368)">
<path d="M580.74 241V113L594.74 127H552.74V101H613.14V241H580.74Z" fill="#996E2A"/>
</g>
<g opacity="0.07" filter="url(#filter4_f_8_4368)">
<path d="M760 520H804L770 264H764H760V520Z" fill="black"/>
</g>
<g opacity="0.07" filter="url(#filter5_f_8_4368)">
<path d="M360 520L420 184V520H360Z" fill="black"/>
</g>
</g>
<defs>
<filter id="filter0_d_8_4368" x="0" y="0" width="1180" height="700" filterUnits="userSpaceOnUse" color-interpolation-filters="sRGB">
<feFlood flood-opacity="0" result="BackgroundImageFix"/>
<feColorMatrix in="SourceAlpha" type="matrix" values="0 0 0 0 0 0 0 0 0 0 0 0 0 0 0 0 0 0 127 0" result="hardAlpha"/>
<feOffset dy="100"/>
<feGaussianBlur stdDeviation="40"/>
<feColorMatrix type="matrix" values="0 0 0 0 0.47451 0 0 0 0 0.376471 0 0 0 0 0.211765 0 0 0 0.07 0"/>
<feBlend mode="normal" in2="BackgroundImageFix" result="effect1_dropShadow_8_4368"/>
<feBlend mode="normal" in="SourceGraphic" in2="effect1_dropShadow_8_4368" result="shape"/>
</filter>
<filter id="filter1_i_8_4368" x="892.888" y="332.5" width="69.625" height="89" filterUnits="userSpaceOnUse" color-interpolation-filters="sRGB">
<feFlood flood-opacity="0" result="BackgroundImageFix"/>
<feBlend mode="normal" in="SourceGraphic" in2="BackgroundImageFix" result="shape"/>
<feColorMatrix in="SourceAlpha" type="matrix" values="0 0 0 0 0 0 0 0 0 0 0 0 0 0 0 0 0 0 127 0" result="hardAlpha"/>
<feOffset/>
<feGaussianBlur stdDeviation="8"/>
<feComposite in2="hardAlpha" operator="arithmetic" k2="-1" k3="1"/>
<feColorMatrix type="matrix" values="0 0 0 0 0 0 0 0 0 0 0 0 0 0 0 0 0 0 0.5 0"/>
<feBlend mode="normal" in2="shape" result="effect1_innerShadow_8_4368"/>
</filter>
<filter id="filter2_i_8_4368" x="206.412" y="260.2" width="84.1494" height="106.8" filterUnits="userSpaceOnUse" color-interpolation-filters="sRGB">
<feFlood flood-opacity="0" result="BackgroundImageFix"/>
<feBlend mode="normal" in="SourceGraphic" in2="BackgroundImageFix" result="shape"/>
<feColorMatrix in="SourceAlpha" type="matrix" values="0 0 0 0 0 0 0 0 0 0 0 0 0 0 0 0 0 0 127 0" result="hardAlpha"/>
<feOffset/>
<feGaussianBlur stdDeviation="10"/>
<feComposite in2="hardAlpha" operator="arithmetic" k2="-1" k3="1"/>
<feColorMatrix type="matrix" values="0 0 0 0 0 0 0 0 0 0 0 0 0 0 0 0 0 0 0.5 0"/>
<feBlend mode="normal" in2="shape" result="effect1_innerShadow_8_4368"/>
</filter>
<filter id="filter3_i_8_4368" x="552.74" y="101" width="60.3994" height="140" filterUnits="userSpaceOnUse" color-interpolation-filters="sRGB">
<feFlood flood-opacity="0" result="BackgroundImageFix"/>
<feBlend mode="normal" in="SourceGraphic" in2="BackgroundImageFix" result="shape"/>
<feColorMatrix in="SourceAlpha" type="matrix" values="0 0 0 0 0 0 0 0 0 0 0 0 0 0 0 0 0 0 127 0" result="hardAlpha"/>
<feOffset/>
<feGaussianBlur stdDeviation="14"/>
<feComposite in2="hardAlpha" operator="arithmetic" k2="-1" k3="1"/>
<feColorMatrix type="matrix" values="0 0 0 0 0 0 0 0 0 0 0 0 0 0 0 0 0 0 0.5 0"/>
<feBlend mode="normal" in2="shape" result="effect1_innerShadow_8_4368"/>
</filter>
<filter id="filter4_f_8_4368" x="744" y="248" width="76" height="288" filterUnits="userSpaceOnUse" color-interpolation-filters="sRGB">
<feFlood flood-opacity="0" result="BackgroundImageFix"/>
<feBlend mode="normal" in="SourceGraphic" in2="BackgroundImageFix" result="shape"/>
<feGaussianBlur stdDeviation="8" result="effect1_foregroundBlur_8_4368"/>
</filter>
<filter id="filter5_f_8_4368" x="344" y="168" width="92" height="368" filterUnits="userSpaceOnUse" color-interpolation-filters="sRGB">
<feFlood flood-opacity="0" result="BackgroundImageFix"/>
<feBlend mode="normal" in="SourceGraphic" in2="BackgroundImageFix" result="shape"/>
<feGaussianBlur stdDeviation="8" result="effect1_foregroundBlur_8_4368"/>
</filter>
<linearGradient id="paint0_linear_8_4368" x1="929.058" y1="263.008" x2="929.058" y2="224" gradientUnits="userSpaceOnUse">
<stop stop-color="#9D562B"/>
<stop offset="1" stop-color="#B86D3F"/>
</linearGradient>
<linearGradient id="paint1_linear_8_4368" x1="929.798" y1="519.494" x2="929.798" y2="263.62" gradientUnits="userSpaceOnUse">
<stop stop-color="#6D3A1A"/>
<stop offset="1" stop-color="#B86D3F"/>
</linearGradient>
<linearGradient id="paint2_linear_8_4368" x1="930" y1="264" x2="930" y2="520" gradientUnits="userSpaceOnUse">
<stop stop-opacity="0"/>
<stop offset="1"/>
</linearGradient>
<linearGradient id="paint3_linear_8_4368" x1="264.871" y1="183.709" x2="264.871" y2="144" gradientUnits="userSpaceOnUse">
<stop stop-color="#7C7C7C"/>
<stop offset="1" stop-color="#B1B1B1"/>
</linearGradient>
<linearGradient id="paint4_linear_8_4368" x1="249.798" y1="519.336" x2="249.798" y2="183.501" gradientUnits="userSpaceOnUse">
<stop stop-color="#7C7C7C"/>
<stop offset="1" stop-color="#B1B1B1"/>
</linearGradient>
<linearGradient id="paint5_linear_8_4368" x1="250" y1="184" x2="250" y2="520" gradientUnits="userSpaceOnUse">
<stop stop-opacity="0"/>
<stop offset="0.9375" stop-opacity="0.9375"/>
<stop offset="1"/>
</linearGradient>
<linearGradient id="paint6_linear_8_4368" x1="604.871" y1="36" x2="604.871" y2="0" gradientUnits="userSpaceOnUse">
<stop stop-color="#9D6E2B"/>
<stop offset="1" stop-color="#B88A3F"/>
</linearGradient>
<linearGradient id="paint7_linear_8_4368" x1="589.798" y1="519.044" x2="589.798" y2="35.2811" gradientUnits="userSpaceOnUse">
<stop stop-color="#6D4B1A"/>
<stop offset="1" stop-color="#B88A3F"/>
</linearGradient>
<linearGradient id="paint8_linear_8_4368" x1="590" y1="36" x2="590" y2="520" gradientUnits="userSpaceOnUse">
<stop stop-opacity="0"/>
<stop offset="1"/>
</linearGradient>
</defs>
</svg>
